<svg width="75" height="69" viewBox="0 0 75 69" fill="none" xmlns="http://www.w3.org/2000/svg">
<path d="M33.75 11.0983L15 23.904C13.4375 24.9854 12.5 26.6644 12.5 28.4572V54.0688C12.5 57.1991 15.3125 59.7602 18.75 59.7602H56.25C59.6875 59.7602 62.5 57.1991 62.5 54.0688V28.4572C62.5 26.6644 61.5625 24.9854 60 23.904L41.25 11.0983C40.1661 10.3637 38.8511 9.96704 37.5 9.96704C36.1489 9.96704 34.8339 10.3637 33.75 11.0983ZM39.0625 35.5715C39.0625 37.9335 36.9688 39.8401 34.375 39.8401V49.8002C34.375 50.597 33.6875 51.223 32.8125 51.223C31.9375 51.223 31.25 50.597 31.25 49.8002V39.8401C28.6563 39.8401 26.5625 37.9335 26.5625 35.5715V28.4572C26.5625 27.6604 27.25 27.0343 28.125 27.0343C29 27.0343 29.6875 27.6604 29.6875 28.4572V35.5715H31.25V28.4572C31.25 27.6604 31.9375 27.0343 32.8125 27.0343C33.6875 27.0343 34.375 27.6604 34.375 28.4572V35.5715H35.9375V28.4572C35.9375 27.6604 36.625 27.0343 37.5 27.0343C38.375 27.0343 39.0625 27.6604 39.0625 28.4572V35.5715ZM45.3125 51.223C44.4375 51.223 43.75 50.597 43.75 49.8002V41.263H42.1875C41.3125 41.263 40.625 40.6369 40.625 39.8401V32.7258C40.625 30.2216 42.4063 28.0873 44.875 27.3474C45.8438 27.0343 46.875 27.7458 46.875 28.7133V49.8002C46.875 50.597 46.1875 51.223 45.3125 51.223Z" fill="#555555"/>
</svg>
