<svg width="65" height="62" viewBox="0 0 65 62" fill="none" xmlns="http://www.w3.org/2000/svg">
<path d="M51.4583 7.74992H48.75V2.58325H43.3333V7.74992H21.6667V2.58325H16.25V7.74992H13.5417C12.1051 7.74992 10.7273 8.29426 9.7115 9.2632C8.69568 10.2321 8.125 11.5463 8.125 12.9166V49.0833C8.125 50.4535 8.69568 51.7677 9.7115 52.7366C10.7273 53.7056 12.1051 54.2499 13.5417 54.2499H51.4583C54.4375 54.2499 56.875 51.9249 56.875 49.0833V12.9166C56.875 10.0749 54.4375 7.74992 51.4583 7.74992ZM32.5 15.4999C36.9958 15.4999 40.625 18.9616 40.625 23.2499C40.625 27.5383 36.9958 30.9999 32.5 30.9999C28.0042 30.9999 24.375 27.5383 24.375 23.2499C24.375 18.9616 28.0042 15.4999 32.5 15.4999ZM48.75 46.4999H16.25V43.9166C16.25 38.7499 27.0833 35.9083 32.5 35.9083C37.9167 35.9083 48.75 38.7499 48.75 43.9166V46.4999Z" fill="#555555"/>
</svg>
