<svg width="17" height="17" viewBox="0 0 17 17" fill="none" xmlns="http://www.w3.org/2000/svg">
<path d="M15.2292 2.83334H13.6945V3.77778H15.1111V14.1667H1.8889V3.77778H3.30557V2.83334H1.77085C1.66046 2.83518 1.55151 2.85875 1.45024 2.90271C1.34896 2.94666 1.25734 3.01014 1.1806 3.08951C1.10386 3.16888 1.0435 3.2626 1.00299 3.36529C0.96247 3.46799 0.942581 3.57767 0.944457 3.68806V14.2564C0.942581 14.3668 0.96247 14.4765 1.00299 14.5792C1.0435 14.6819 1.10386 14.7756 1.1806 14.8549C1.25734 14.9343 1.34896 14.9978 1.45024 15.0417C1.55151 15.0857 1.66046 15.1093 1.77085 15.1111H15.2292C15.3396 15.1093 15.4485 15.0857 15.5498 15.0417C15.6511 14.9978 15.7427 14.9343 15.8194 14.8549C15.8962 14.7756 15.9565 14.6819 15.997 14.5792C16.0376 14.4765 16.0574 14.3668 16.0556 14.2564V3.68806C16.0574 3.57767 16.0376 3.46799 15.997 3.36529C15.9565 3.2626 15.8962 3.16888 15.8194 3.08951C15.7427 3.01014 15.6511 2.94666 15.5498 2.90271C15.4485 2.85875 15.3396 2.83518 15.2292 2.83334V2.83334Z" fill="black"/>
<path d="M3.77783 6.61111H4.72228V7.55556H3.77783V6.61111Z" fill="black"/>
<path d="M6.61108 6.61111H7.55553V7.55556H6.61108V6.61111Z" fill="black"/>
<path d="M9.44434 6.61111H10.3888V7.55556H9.44434V6.61111Z" fill="black"/>
<path d="M12.2778 6.61111H13.2223V7.55556H12.2778V6.61111Z" fill="black"/>
<path d="M3.77783 8.97222H4.72228V9.91667H3.77783V8.97222Z" fill="black"/>
<path d="M6.61108 8.97222H7.55553V9.91667H6.61108V8.97222Z" fill="black"/>
<path d="M9.44434 8.97222H10.3888V9.91667H9.44434V8.97222Z" fill="black"/>
<path d="M12.2778 8.97222H13.2223V9.91667H12.2778V8.97222Z" fill="black"/>
<path d="M3.77783 11.3333H4.72228V12.2778H3.77783V11.3333Z" fill="black"/>
<path d="M6.61108 11.3333H7.55553V12.2778H6.61108V11.3333Z" fill="black"/>
<path d="M9.44434 11.3333H10.3888V12.2778H9.44434V11.3333Z" fill="black"/>
<path d="M12.2778 11.3333H13.2223V12.2778H12.2778V11.3333Z" fill="black"/>
<path d="M4.72222 4.72222C4.84746 4.72222 4.96757 4.67247 5.05613 4.58391C5.14469 4.49535 5.19444 4.37524 5.19444 4.25V1.41666C5.19444 1.29142 5.14469 1.17131 5.05613 1.08275C4.96757 0.994195 4.84746 0.944443 4.72222 0.944443C4.59698 0.944443 4.47687 0.994195 4.38831 1.08275C4.29975 1.17131 4.25 1.29142 4.25 1.41666V4.25C4.25 4.37524 4.29975 4.49535 4.38831 4.58391C4.47687 4.67247 4.59698 4.72222 4.72222 4.72222Z" fill="black"/>
<path d="M12.2779 4.72222C12.4031 4.72222 12.5232 4.67247 12.6118 4.58391C12.7004 4.49535 12.7501 4.37524 12.7501 4.25V1.41666C12.7501 1.29142 12.7004 1.17131 12.6118 1.08275C12.5232 0.994195 12.4031 0.944443 12.2779 0.944443C12.1526 0.944443 12.0325 0.994195 11.944 1.08275C11.8554 1.17131 11.8057 1.29142 11.8057 1.41666V4.25C11.8057 4.37524 11.8554 4.49535 11.944 4.58391C12.0325 4.67247 12.1526 4.72222 12.2779 4.72222Z" fill="black"/>
<path d="M6.13892 2.83334H10.8611V3.77778H6.13892V2.83334Z" fill="black"/>
</svg>
