<svg width="66" height="62" viewBox="0 0 66 62" fill="none" xmlns="http://www.w3.org/2000/svg">
<path d="M33 5.16675C27.561 5.16675 22.2442 6.68185 17.7218 9.52045C13.1995 12.3591 9.67473 16.3937 7.59333 21.1141C5.51192 25.8345 4.96732 31.0287 6.02842 36.0399C7.08951 41.0511 9.70863 45.6542 13.5546 49.267C17.4005 52.8799 22.3006 55.3403 27.635 56.337C32.9695 57.3338 38.4988 56.8222 43.5238 54.867C48.5488 52.9117 52.8437 49.6006 55.8654 45.3523C58.8872 41.104 60.5 36.1094 60.5 31.0001C60.5 27.6076 59.7887 24.2483 58.4067 21.1141C57.0247 17.9798 54.9991 15.132 52.4454 12.7332C49.8918 10.3343 46.8603 8.43144 43.5238 7.13319C40.1874 5.83495 36.6114 5.16675 33 5.16675V5.16675ZM35.75 41.3334C35.75 42.0186 35.4603 42.6756 34.9446 43.1601C34.4288 43.6446 33.7294 43.9168 33 43.9168C32.2707 43.9168 31.5712 43.6446 31.0555 43.1601C30.5397 42.6756 30.25 42.0186 30.25 41.3334V28.4167C30.25 27.7316 30.5397 27.0745 31.0555 26.5901C31.5712 26.1056 32.2707 25.8334 33 25.8334C33.7294 25.8334 34.4288 26.1056 34.9446 26.5901C35.4603 27.0745 35.75 27.7316 35.75 28.4167V41.3334ZM33 23.2501C32.4561 23.2501 31.9244 23.0986 31.4722 22.8147C31.02 22.5309 30.6675 22.1274 30.4593 21.6553C30.2512 21.1833 30.1967 20.6639 30.3029 20.1628C30.409 19.6616 30.6709 19.2013 31.0555 18.8401C31.4401 18.4788 31.9301 18.2327 32.4635 18.1331C32.997 18.0334 33.5499 18.0845 34.0524 18.2801C34.5549 18.4756 34.9844 18.8067 35.2866 19.2315C35.5887 19.6564 35.75 20.1558 35.75 20.6667C35.75 21.3519 35.4603 22.009 34.9446 22.4934C34.4288 22.9779 33.7294 23.2501 33 23.2501Z" fill="#555555"/>
</svg>
