<svg width="70" height="63" viewBox="0 0 70 63" fill="none" xmlns="http://www.w3.org/2000/svg">
<path d="M61.25 15.0938C61.25 13.1792 60.405 11.3431 58.9008 9.98932C57.3966 8.63554 55.3564 7.875 53.2292 7.875H16.7708C14.6436 7.875 12.6034 8.63554 11.0992 9.98932C9.59505 11.3431 8.75 13.1792 8.75 15.0938V47.9062C8.75 49.8208 9.59505 51.6569 11.0992 53.0107C12.6034 54.3645 14.6436 55.125 16.7708 55.125H35.0642C32.8426 52.0059 31.8153 48.3185 32.1388 44.625H19.6875C19.1333 44.6248 18.5998 44.4354 18.1948 44.0948C17.7898 43.7543 17.5435 43.2881 17.5058 42.7904C17.468 42.2928 17.6415 41.8008 17.9913 41.4138C18.341 41.0269 18.8409 40.7739 19.39 40.7059L19.6875 40.6875H32.9963C33.8808 38.2307 35.3738 35.9868 37.3625 34.125H19.6875C19.1333 34.1248 18.5998 33.9354 18.1948 33.5948C17.7898 33.2543 17.5435 32.7881 17.5058 32.2904C17.468 31.7928 17.6415 31.3008 17.9913 30.9138C18.341 30.5269 18.8409 30.2739 19.39 30.2059L19.6875 30.1875H41.5625C42.035 30.1875 42.4754 30.324 42.8313 30.555C45.3927 29.446 48.1992 28.8717 51.0417 28.875C54.6598 28.87 58.2034 29.8012 61.25 31.5578V15.0938ZM50.3125 19.6875C50.8667 19.6877 51.4002 19.8771 51.8052 20.2177C52.2102 20.5582 52.4565 21.0244 52.4942 21.5221C52.532 22.0197 52.3585 22.5117 52.0087 22.8987C51.659 23.2856 51.1591 23.5386 50.61 23.6066L50.3125 23.625H19.6875C19.1333 23.6248 18.5998 23.4354 18.1948 23.0948C17.7898 22.7543 17.5435 22.2881 17.5058 21.7904C17.468 21.2928 17.6415 20.8008 17.9913 20.4138C18.341 20.0269 18.8409 19.7739 19.39 19.7059L19.6875 19.6875H50.3125ZM36.4583 41.0261L37.7621 42.1549C38.3275 42.6447 38.7774 43.2322 39.0846 43.8821C39.3919 44.5321 39.5503 45.2312 39.5503 45.9375C39.5503 46.6438 39.3919 47.3429 39.0846 47.9929C38.7774 48.6428 38.3275 49.2303 37.7621 49.7201L36.4583 50.8489C37.0417 52.3556 37.8875 53.7443 38.9462 54.9701L40.7021 54.5029C41.4606 54.3016 42.2566 54.2412 43.0418 54.3254C43.827 54.4096 44.585 54.6366 45.2697 54.9926C45.9545 55.3486 46.5516 55.8262 47.0249 56.3963C47.4982 56.9664 47.8377 57.6172 48.0229 58.3091L48.5304 60.186C50.1928 60.4384 51.8905 60.4384 53.5529 60.186L54.0575 58.3065C54.243 57.6145 54.5828 56.9638 55.0565 56.3937C55.5301 55.8236 56.1276 55.3462 56.8126 54.9905C57.4976 54.6347 58.2559 54.408 59.0413 54.3242C59.8267 54.2404 60.6228 54.3012 61.3813 54.5029L63.1371 54.9701C64.1929 53.7443 65.0387 52.3556 65.625 50.8489L64.3213 49.7201C63.7558 49.2303 63.306 48.6428 62.9987 47.9929C62.6914 47.3429 62.5331 46.6438 62.5331 45.9375C62.5331 45.2312 62.6914 44.5321 62.9987 43.8821C63.306 43.2322 63.7558 42.6447 64.3213 42.1549L65.625 41.0261C65.0487 39.5403 64.2085 38.1485 63.1371 36.9049L61.3813 37.3721C60.6228 37.5734 59.8267 37.6338 59.0415 37.5496C58.2563 37.4654 57.4983 37.2384 56.8136 36.8824C56.1289 36.5264 55.5317 36.0488 55.0584 35.4787C54.5851 34.9086 54.2456 34.2578 54.0604 33.5659L53.5529 31.689C51.8896 31.4362 50.1909 31.4362 48.5275 31.689L48.0258 33.5685C47.8404 34.2605 47.5005 34.9112 47.0269 35.4813C46.5532 36.0514 45.9558 36.5288 45.2707 36.8845C44.5857 37.2403 43.8275 37.467 43.0421 37.5508C42.2567 37.6346 41.4606 37.5738 40.7021 37.3721L38.9462 36.9049C37.8748 38.1485 37.0346 39.5403 36.4583 41.0261ZM51.0417 49.875C48.7083 49.875 46.8125 48.111 46.8125 45.9375C46.8125 43.764 48.7083 42 51.0417 42C53.375 42 55.2708 43.764 55.2708 45.9375C55.2708 48.111 53.375 49.875 51.0417 49.875Z" fill="#555555"/>
</svg>
