<?xml version="1.0" encoding="utf-8"?>
<!-- Generator: Adobe Illustrator 19.0.0, SVG Export Plug-In . SVG Version: 6.00 Build 0)  -->
<svg version="1.1" id="Vrstva_1" xmlns="http://www.w3.org/2000/svg" xmlns:xlink="http://www.w3.org/1999/xlink" x="0px" y="0px"
	 viewBox="0 0 251 250" style="enable-background:new 0 0 251 250;" xml:space="preserve">
<style type="text/css">
	.st0{fill:#FFFFFF;}
	.st1{fill:#50AB5A;}
	.st2{fill-rule:evenodd;clip-rule:evenodd;fill:#FFFFFF;}
</style>
<g>
	<g>
		<path class="st0" d="M38.9,167c0.4,0.9,0.6,1.9,0.7,2.9c0.1,1-0.1,2-0.4,3l-2.9-0.8c0.2-0.7,0.3-1.4,0.3-2.1
			c0-0.7-0.1-1.4-0.4-1.9c-0.3-0.6-0.6-1.1-1-1.3c-0.4-0.2-0.8-0.2-1.2,0c-0.2,0.1-0.4,0.2-0.5,0.4c-0.1,0.2-0.2,0.4-0.2,0.6
			c0,0.2-0.1,0.5-0.1,0.8c0,0.3,0,0.6,0,1l0,2.1c0,0.4,0,0.8-0.1,1.3c-0.1,0.4-0.2,0.8-0.4,1.2c-0.2,0.4-0.4,0.8-0.8,1.1
			c-0.3,0.3-0.7,0.6-1.2,0.8c-0.6,0.2-1.1,0.4-1.7,0.3c-0.6,0-1.2-0.2-1.7-0.4c-0.6-0.3-1.1-0.7-1.6-1.2c-0.5-0.5-0.9-1.1-1.2-1.8
			c-0.4-0.8-0.6-1.7-0.6-2.6c0-0.9,0.1-1.8,0.4-2.6l2.7,0.7c-0.1,0.6-0.2,1.2-0.2,1.7c0,0.5,0.1,1.1,0.4,1.6
			c0.2,0.5,0.5,0.9,0.9,1.1c0.4,0.2,0.7,0.2,1.1,0.1c0.2-0.1,0.4-0.2,0.5-0.4c0.1-0.2,0.2-0.4,0.2-0.6c0-0.2,0-0.5,0-0.8
			c0-0.3,0-0.6,0-1l-0.1-2.1c0-1,0.1-1.9,0.5-2.6c0.4-0.7,1-1.3,2-1.8c0.6-0.3,1.2-0.4,1.8-0.4c0.6,0,1.2,0.1,1.8,0.4
			c0.6,0.3,1.1,0.7,1.6,1.2C38.1,165.5,38.5,166.2,38.9,167L38.9,167z M21.5,164.6l14.2-4.6l-3-9.1l-2.7,0.9l1.9,5.9l-3.3,1.1
			l-1.6-4.8l-2.7,0.9l1.6,4.8l-2.9,0.9l-1.9-5.7l-2.7,0.9L21.5,164.6L21.5,164.6z M19.8,147.5l0.7,4l-2.8,0.5l-2-11.4l2.8-0.5l0.7,4
			l11.9-2.1l0.6,3.3L19.8,147.5L19.8,147.5z M15.2,136.5l-0.1-3.4l6.1-0.1l0-0.1l-6.2-4.3l-0.1-3.7l6,4.4l8.9-5.5l0.1,3.7l-6.2,3.8
			l2.3,1.7l4-0.1l0.1,3.4L15.2,136.5L15.2,136.5z M24.3,115.6l-1.4,0.2c-0.8,0.1-1.6,0.3-2.4,0.4c-0.9,0.1-1.7,0.3-2.5,0.4l0,0.1
			c0.8,0.3,1.6,0.5,2.4,0.8c0.8,0.3,1.6,0.5,2.3,0.8l1.3,0.5L24.3,115.6L24.3,115.6z M27,115.2l3.6-0.6L31,111l-15.3,3.4l-0.4,4
			l14.5,6l0.3-3.4l-3.5-1.2L27,115.2L27,115.2z M13,118l-2.9-4.2l2.3-1.6l2.4,4.4L13,118L13,118z M16.9,106.3l0.8-3.4l8.2-2l3.6-0.6
			l0-0.1c-0.8-0.1-1.7-0.2-2.6-0.4c-1-0.1-1.9-0.3-2.8-0.5L19,98l0.8-3.1l14.5,3.6l-0.8,3.4l-8.2,2l-3.5,0.6l0,0.1
			c0.8,0.1,1.7,0.3,2.6,0.4c0.9,0.1,1.8,0.3,2.7,0.5l5.1,1.3l-0.8,3.1L16.9,106.3L16.9,106.3z M21.4,89.9l13.9,5.6l1.3-3.1
			l-13.9-5.6L21.4,89.9L21.4,89.9z M19.2,89.1l-1.5-4.8l2.7-0.8l1,4.9L19.2,89.1L19.2,89.1z M27.4,76.2l1.7-2.9l5,2.9l2.6-4.5
			l-5-2.9l1.7-2.9l13,7.5l-1.7,2.9l-5.4-3.1l-2.6,4.5l5.4,3.1l-1.7,2.9L27.4,76.2L27.4,76.2z M52.2,66.4c0.7-0.8,1.1-1.6,1.4-2.4
			c0.3-0.9,0.4-1.7,0.2-2.6c-0.1-0.9-0.4-1.8-0.9-2.7c-0.5-0.9-1.2-1.7-2.2-2.5c-0.9-0.8-1.8-1.4-2.8-1.8c-0.9-0.4-1.9-0.6-2.7-0.5
			s-1.7,0.2-2.5,0.6c-0.8,0.4-1.5,1-2.2,1.7c-0.7,0.8-1.1,1.6-1.4,2.4c-0.3,0.9-0.4,1.7-0.3,2.6c0.1,0.9,0.4,1.8,0.9,2.6
			c0.5,0.9,1.2,1.7,2.1,2.5c0.9,0.8,1.9,1.4,2.8,1.8c0.9,0.4,1.9,0.6,2.8,0.6c0.9,0,1.8-0.2,2.6-0.6C50.8,67.8,51.6,67.2,52.2,66.4
			L52.2,66.4z M50,64.5c-0.7,0.8-1.5,1.1-2.6,1c-1.1-0.1-2.2-0.7-3.3-1.7c-1.1-1-1.8-2-2.1-3c-0.2-1,0-1.9,0.6-2.7
			c0.7-0.8,1.5-1.1,2.5-1c1,0.1,2.1,0.6,3.2,1.6c1.1,1,1.9,2,2.1,3C50.9,62.8,50.7,63.7,50,64.5L50,64.5z M55.6,51l1.3-1.1
			c0.7-0.6,1.1-1.1,1.2-1.7c0.1-0.6-0.1-1.2-0.5-1.7c-0.5-0.6-1-0.8-1.5-0.7c-0.5,0.1-1.2,0.4-1.8,1l-1.3,1.1L55.6,51L55.6,51z
			 M64.4,54.1l-5.7-2.3L57.3,53l3.5,4.1l-2.6,2.2l-9.6-11.5l4.1-3.5c0.6-0.5,1.2-0.9,1.9-1.3c0.6-0.3,1.3-0.5,1.9-0.6
			c0.6-0.1,1.3,0,1.9,0.3c0.6,0.3,1.2,0.7,1.8,1.4c0.7,0.8,1.1,1.7,1.2,2.5c0.1,0.9-0.1,1.7-0.5,2.5l6.5,2.4L64.4,54.1L64.4,54.1z
			 M60.6,37.9l7.9,12.7l2.7-1.7l-2.8-4.5c-0.5-0.8-1-1.5-1.6-2.3c-0.6-0.8-1.1-1.5-1.6-2.1l0.1,0l3,2l7.3,4.3l2.9-1.8l-7.9-12.7
			l-2.7,1.7l2.8,4.5c0.5,0.8,1,1.5,1.6,2.3c0.6,0.8,1.1,1.5,1.6,2.1l-0.1,0l-3-2L63.5,36L60.6,37.9L60.6,37.9z M74.3,29.6l3-1.5
			l6.8,13.3l-3,1.5L74.3,29.6L74.3,29.6z M92.8,38.1c1.8-0.7,3.1-2,3.7-3.8L94.1,33c-0.2,0.5-0.5,1-0.8,1.4c-0.4,0.4-0.8,0.7-1.4,1
			c-1,0.4-2,0.3-2.9-0.2c-0.9-0.6-1.7-1.6-2.2-3c-0.3-0.7-0.4-1.4-0.5-2c0-0.6,0-1.2,0.2-1.7c0.2-0.5,0.4-0.9,0.8-1.3
			c0.3-0.4,0.7-0.6,1.2-0.8c0.5-0.2,1-0.3,1.5-0.2c0.5,0.1,1,0.2,1.4,0.4l0.9-2.7c-0.7-0.3-1.4-0.5-2.3-0.6c-0.9-0.1-1.7,0-2.6,0.4
			c-0.9,0.3-1.7,0.8-2.3,1.5c-0.7,0.6-1.2,1.4-1.5,2.2c-0.4,0.9-0.5,1.8-0.6,2.9c0,1,0.2,2.1,0.7,3.3c0.4,1.2,1,2.1,1.7,2.9
			c0.7,0.8,1.4,1.3,2.3,1.7c0.8,0.4,1.7,0.6,2.6,0.6C91.1,38.6,92,38.4,92.8,38.1L92.8,38.1z M95.9,20.9l3.3-0.7l1.3,6l0.1,0
			l3.1-6.9l3.6-0.8l-3.2,6.8l7.1,7.7l-3.6,0.8l-4.9-5.4l-1.2,2.6l0.8,3.9L99,35.5L95.9,20.9L95.9,20.9z M114.6,27.3l0.4,5.3l3.4-0.2
			l-0.4-5.3l3.8-9.9l-3.5,0.2l-1.1,3.5c-0.2,0.6-0.3,1.1-0.5,1.7c-0.2,0.5-0.3,1.1-0.5,1.7l-0.1,0c-0.3-0.6-0.5-1.1-0.7-1.6
			c-0.2-0.5-0.5-1-0.7-1.6l-1.6-3.3l-3.6,0.3L114.6,27.3L114.6,27.3z M113.7,15.3l3.7-3.5l1.9,2l-4,3L113.7,15.3L113.7,15.3z
			 M130.2,32.6c-0.9,0-1.8-0.2-2.7-0.5c-0.8-0.3-1.6-0.8-2.2-1.5c-0.6-0.7-1.1-1.5-1.5-2.4c-0.4-1-0.5-2.1-0.5-3.3
			c0-1.2,0.2-2.3,0.6-3.3c0.4-1,0.9-1.8,1.6-2.4c0.7-0.7,1.4-1.2,2.3-1.5c0.9-0.3,1.8-0.5,2.7-0.5c1,0,1.8,0.2,2.6,0.6
			c0.8,0.4,1.4,0.9,1.9,1.4l-1.8,2.1c-0.4-0.4-0.8-0.7-1.2-0.9c-0.4-0.2-0.9-0.3-1.4-0.4c-0.5,0-1,0.1-1.4,0.3
			c-0.5,0.2-0.9,0.5-1.2,0.9c-0.3,0.4-0.6,0.9-0.8,1.5c-0.2,0.6-0.3,1.3-0.3,2c0,1.5,0.3,2.7,0.9,3.6c0.6,0.9,1.5,1.3,2.6,1.3
			c0.6,0,1.2-0.1,1.6-0.4c0.5-0.3,0.9-0.6,1.3-1l1.8,2.1C133.9,32,132.2,32.7,130.2,32.6L130.2,32.6z M139.5,18l3.3,0.6l-1,5.7
			l5.1,0.9l1-5.7l3.3,0.6l-2.6,14.7l-3.3-0.6l1.1-6.1l-5.1-0.9l-1.1,6.1l-3.3-0.6L139.5,18z"/>
		<path class="st0" d="M163.8,24.1l3.4,1.5l-0.5,7.1c0,0.5-0.1,0.9-0.2,1.4c-0.1,0.5-0.1,1-0.2,1.4l0.1,0c0.3-0.4,0.6-0.7,1-1.1
			c0.3-0.4,0.6-0.7,0.9-1.1l4.9-5.1l3.4,1.5l-6.1,13.7l-2.8-1.3l2.2-5c0.1-0.3,0.3-0.7,0.5-1.1c0.2-0.4,0.4-0.8,0.7-1.2
			c0.2-0.4,0.4-0.8,0.7-1.2c0.2-0.4,0.4-0.7,0.6-1l-0.1,0l-2.6,2.8l-4.3,4.4l-1.7-0.8l0.4-6.1l0.4-3.7l-0.1,0
			c-0.1,0.4-0.2,0.7-0.4,1.2c-0.1,0.4-0.3,0.8-0.4,1.3c-0.1,0.4-0.3,0.9-0.4,1.3c-0.2,0.4-0.3,0.8-0.5,1.1l-2.2,5l-2.8-1.2
			L163.8,24.1L163.8,24.1z M181,32.4L173,45.1l8.1,5.1l1.5-2.4l-5.3-3.3l1.8-2.9l4.3,2.7l1.5-2.4l-4.3-2.7l1.6-2.5l5.1,3.2l1.5-2.4
			L181,32.4L181,32.4z M183.7,29.8l1.7,0l1,2.9l0.1,0l3-0.4l0.8,1.6l-3.1,1l-3.1-1.9L183.7,29.8L183.7,29.8z M186.5,55.1
			c-0.8-0.6-1.4-1.4-1.9-2.3c-0.5-0.9-0.8-1.9-1-2.9l3-0.5c0.1,0.7,0.3,1.4,0.6,2c0.3,0.6,0.7,1.2,1.2,1.6c0.5,0.5,1,0.7,1.5,0.7
			c0.4,0,0.8-0.1,1.1-0.5c0.1-0.2,0.2-0.4,0.3-0.6c0-0.2,0-0.4,0-0.6c-0.1-0.2-0.2-0.5-0.3-0.7c-0.1-0.3-0.3-0.5-0.4-0.9l-1-1.9
			c-0.2-0.4-0.4-0.8-0.5-1.2c-0.1-0.4-0.2-0.8-0.2-1.3c0-0.4,0.1-0.9,0.2-1.3c0.2-0.4,0.4-0.9,0.8-1.3c0.4-0.5,0.9-0.8,1.4-1.1
			c0.5-0.2,1.1-0.4,1.8-0.4c0.6,0,1.3,0.1,1.9,0.4c0.6,0.2,1.3,0.6,1.9,1.1c0.7,0.6,1.2,1.2,1.7,2c0.4,0.8,0.7,1.7,0.8,2.6l-2.7,0.5
			c-0.1-0.6-0.3-1.1-0.6-1.6c-0.2-0.5-0.6-0.9-1-1.3c-0.4-0.4-0.9-0.6-1.3-0.6c-0.4,0-0.8,0.1-1,0.4c-0.1,0.2-0.2,0.4-0.2,0.6
			c0,0.2,0,0.4,0.1,0.6c0.1,0.2,0.2,0.5,0.3,0.7c0.1,0.3,0.3,0.6,0.4,0.9l1,1.8c0.5,0.9,0.7,1.7,0.7,2.6c0,0.8-0.4,1.7-1,2.5
			c-0.4,0.5-0.9,0.9-1.4,1.1c-0.6,0.3-1.1,0.4-1.8,0.4c-0.6,0-1.3-0.1-2-0.4C187.9,56.1,187.2,55.7,186.5,55.1L186.5,55.1z
			 M203.6,54.2l-9.1,8l2.2,2.6l9.1-8l2.7,3.1l2.1-1.9l-7.6-8.8l-2.1,1.9L203.6,54.2L203.6,54.2z M212.9,76.8l1-1
			c0.5-0.6,1.1-1.1,1.8-1.7c0.6-0.6,1.2-1.2,1.8-1.7l0-0.1c-0.8,0.2-1.6,0.5-2.4,0.7c-0.8,0.3-1.6,0.5-2.4,0.7l-1.4,0.4L212.9,76.8
			L212.9,76.8z M210.9,78.7l-2.3-4l-3.5,1l-1.7-3l15.3-3.4l2,3.5l-10.6,11.5l-1.8-3.1L210.9,78.7L210.9,78.7z M215,97.1
			c-0.3-1-0.5-1.9-0.4-2.8c0.1-0.9,0.3-1.8,0.8-2.5c0.4-0.8,1.1-1.5,1.9-2.1c0.8-0.6,1.8-1.1,2.9-1.5c1.2-0.4,2.2-0.6,3.3-0.6
			c1,0,1.9,0.2,2.7,0.5c0.8,0.4,1.5,0.9,2.1,1.5c0.6,0.7,1.1,1.5,1.4,2.4c0.3,1,0.5,1.9,0.4,2.8c-0.1,0.9-0.3,1.7-0.7,2.5
			c-0.4,0.8-1,1.5-1.8,2.1c-0.8,0.6-1.8,1.1-2.9,1.5c-1.2,0.4-2.2,0.6-3.3,0.6c-1,0-1.9-0.2-2.8-0.5c-0.8-0.3-1.6-0.9-2.2-1.5
			C215.8,98.9,215.3,98.1,215,97.1L215,97.1z M217.8,96.2c0.3,1,1,1.6,2,1.9c1,0.3,2.3,0.2,3.7-0.3c1.4-0.5,2.4-1.2,3-2
			c0.6-0.8,0.7-1.7,0.4-2.7c-0.3-1-1-1.6-2-1.9c-1-0.3-2.2-0.2-3.6,0.3c-1.4,0.5-2.5,1.2-3.1,2C217.6,94.3,217.4,95.2,217.8,96.2
			L217.8,96.2z M232.4,102.9l1,5c0.1,0.8,0.2,1.5,0.2,2.2c0,0.7-0.1,1.3-0.3,1.8c-0.2,0.5-0.5,1-0.9,1.4c-0.4,0.4-1,0.6-1.7,0.8
			c-0.3,0.1-0.7,0.1-1,0.1c-0.3,0-0.7-0.1-1-0.2c-0.3-0.1-0.6-0.3-0.9-0.4c-0.3-0.2-0.5-0.4-0.7-0.7l-0.1,0c0,0.4-0.1,0.8-0.2,1.1
			c-0.1,0.4-0.3,0.7-0.5,1c-0.2,0.3-0.5,0.5-0.9,0.8c-0.4,0.2-0.8,0.4-1.3,0.5c-0.8,0.1-1.4,0.1-2-0.1c-0.6-0.2-1.1-0.5-1.6-1
			c-0.5-0.4-0.8-1-1.1-1.7c-0.3-0.7-0.5-1.4-0.7-2.2l-1.1-5.5L232.4,102.9L232.4,102.9z M227.5,109c0.2,0.8,0.4,1.4,0.8,1.7
			c0.4,0.3,0.8,0.4,1.4,0.3c0.6-0.1,0.9-0.4,1.1-0.8c0.2-0.4,0.2-1,0-1.8l-0.3-1.6l-3.3,0.6L227.5,109L227.5,109z M221.3,110.5
			c0.4,1.8,1.2,2.6,2.5,2.3c0.6-0.1,1.1-0.4,1.3-0.9c0.2-0.5,0.2-1.2,0-2.1l-0.4-1.9l-3.8,0.7L221.3,110.5L221.3,110.5z
			 M219.8,125.4c0-0.9,0.1-1.8,0.4-2.7c0.3-0.9,0.8-1.6,1.4-2.3c0.6-0.7,1.4-1.2,2.3-1.6c0.9-0.4,2-0.6,3.3-0.7
			c1.2,0,2.4,0.1,3.3,0.5c1,0.3,1.8,0.8,2.5,1.5c0.7,0.6,1.2,1.3,1.6,2.2c0.4,0.8,0.6,1.7,0.6,2.7c0,1-0.1,1.8-0.5,2.6
			c-0.4,0.8-0.8,1.4-1.3,2l-2.2-1.7c0.3-0.4,0.6-0.8,0.8-1.2c0.2-0.4,0.3-0.9,0.3-1.4c0-0.5-0.1-1-0.4-1.4c-0.2-0.4-0.6-0.8-1-1.1
			c-0.4-0.3-0.9-0.6-1.5-0.7c-0.6-0.2-1.3-0.2-2-0.2c-1.5,0.1-2.7,0.4-3.6,1.1c-0.8,0.7-1.2,1.6-1.2,2.7c0,0.6,0.2,1.2,0.5,1.6
			c0.3,0.5,0.6,0.9,1,1.2l-2,1.9C220.7,129,219.9,127.4,219.8,125.4L219.8,125.4z M234.9,133l-0.2,3.4l-14.9-1l0.2-3.4L234.9,133
			L234.9,133z M237.2,133.1l2.9,4.1l-2.3,1.6l-2.4-4.4L237.2,133.1L237.2,133.1z M216.9,150.8c0.2-0.9,0.6-1.8,1.1-2.5
			c0.5-0.7,1.1-1.4,1.9-1.8c0.8-0.5,1.7-0.8,2.7-0.9c1-0.1,2.1-0.1,3.4,0.2c1.2,0.3,2.2,0.7,3.1,1.3c0.9,0.6,1.5,1.3,2.1,2.1
			c0.5,0.8,0.8,1.6,1,2.5c0.2,0.9,0.1,1.8-0.1,2.8c-0.2,0.9-0.6,1.7-1.2,2.4c-0.6,0.7-1.1,1.2-1.8,1.5l-1.7-2.2
			c0.4-0.3,0.8-0.6,1.1-1c0.3-0.4,0.5-0.8,0.6-1.3c0.1-0.5,0.1-1,0-1.5c-0.1-0.5-0.3-0.9-0.7-1.4c-0.3-0.4-0.8-0.8-1.3-1.1
			c-0.5-0.3-1.2-0.6-1.9-0.7c-1.5-0.3-2.7-0.3-3.7,0.2c-1,0.4-1.6,1.2-1.8,2.3c-0.1,0.6-0.1,1.2,0,1.7c0.2,0.5,0.4,1,0.7,1.5
			l-2.5,1.3C216.8,154.5,216.4,152.7,216.9,150.8L216.9,150.8z M236.2,151.1l0.6,1.6l-2.4,1.9l0,0.1l1.3,2.8l-1.2,1.2l-2-2.6
			l0.8-3.6L236.2,151.1L236.2,151.1z M221.7,163.4l-0.6,1.6c-0.3,0.8-0.4,1.5-0.2,2.1c0.2,0.6,0.6,1,1.3,1.3
			c0.7,0.3,1.2,0.2,1.7-0.1c0.4-0.3,0.8-0.9,1.1-1.7l0.6-1.6L221.7,163.4L221.7,163.4z M212.5,164.9l-1.4,3.5l6.8-1
			c0,0.9,0.3,1.7,0.8,2.4c0.5,0.7,1.3,1.3,2.3,1.6c0.8,0.3,1.6,0.4,2.2,0.4c0.7-0.1,1.3-0.3,1.8-0.6c0.5-0.4,1-0.8,1.4-1.4
			c0.4-0.6,0.7-1.3,1-2l1.9-5l-14-5.4l-1.2,3.1l5,1.9l-0.7,1.7L212.5,164.9z"/>
	</g>
	<path class="st1" d="M48.9,184.4l2.2,2.6l-4.7,3.9l0.1,0.1l7.6-0.5l2.4,2.8l-7.5,0.4l-3.5,9.9l-2.4-2.8l2.5-6.9l-2.9,0.1l-3.1,2.6
		l-2.2-2.6L48.9,184.4L48.9,184.4z M51.9,209.6c1.5,1.3,2.9,1.8,4.4,1.6c1.5-0.2,3.1-1.3,4.7-3.2l5.3-6.1l-2.5-2.1l-5.5,6.3
		c-1,1.1-1.8,1.7-2.5,1.9c-0.7,0.1-1.4-0.1-2-0.6c-0.6-0.6-0.9-1.2-0.9-1.9c0-0.7,0.6-1.6,1.5-2.8l5.5-6.3l-2.6-2.2l-5.3,6.1
		c-1.6,1.9-2.5,3.6-2.4,5.1C49.7,206.9,50.4,208.3,51.9,209.6L51.9,209.6z M69.5,207.7l-3.4-2.2l1.5-2.4l9.7,6.3l-1.5,2.4l-3.4-2.2
		l-6.6,10.2l-2.8-1.9L69.5,207.7L69.5,207.7z M78.8,210.3l-6.3,13.6l2.9,1.4l2.2-4.8c0.4-0.8,0.7-1.7,1-2.6c0.3-0.9,0.6-1.7,0.9-2.5
		l0.1,0l0,3.6l0.4,8.4l3.1,1.5l6.3-13.6l-2.9-1.4l-2.2,4.8c-0.4,0.8-0.7,1.7-1,2.6c-0.3,0.9-0.6,1.8-0.9,2.5l-0.1,0l0.1-3.6
		l-0.4-8.4L78.8,210.3L78.8,210.3z M95.6,226.8l0.1-1.4c0-0.8,0.1-1.6,0.2-2.5c0.1-0.9,0.2-1.7,0.2-2.5l-0.1,0
		c-0.4,0.7-0.9,1.4-1.3,2.1c-0.5,0.7-0.9,1.4-1.3,2l-0.8,1.2L95.6,226.8L95.6,226.8z M95.4,229.5l-4.3-1.5l-2,3.1l-3.3-1.1l9.3-12.6
		l3.8,1.3l-0.4,15.7l-3.4-1.2L95.4,229.5L95.4,229.5z M96,215.2l4.8-1.8l1,2.6l-4.9,1.2L96,215.2L96,215.2z M110.6,221.3l3.4,0.3
		l-0.5,5.7l5.1,0.5l0.5-5.7l3.4,0.3l-1.3,14.9l-3.4-0.3l0.5-6.2l-5.1-0.5l-0.5,6.2l-3.4-0.3L110.6,221.3L110.6,221.3z M132.2,237.2
		c-1,0.1-1.9,0-2.8-0.3c-0.9-0.3-1.6-0.7-2.3-1.4c-0.7-0.6-1.2-1.4-1.6-2.3c-0.4-0.9-0.7-2-0.8-3.2c-0.1-1.2,0-2.3,0.2-3.3
		c0.2-1,0.6-1.8,1.2-2.5c0.5-0.7,1.2-1.3,2-1.7c0.8-0.4,1.7-0.7,2.7-0.8c1-0.1,1.9,0,2.8,0.3c0.9,0.3,1.6,0.7,2.3,1.3
		c0.7,0.6,1.2,1.4,1.6,2.3c0.4,0.9,0.7,2,0.8,3.2c0.1,1.2,0,2.3-0.2,3.3c-0.2,1-0.6,1.8-1.2,2.6c-0.5,0.7-1.2,1.3-2,1.7
		C134.1,236.9,133.2,237.1,132.2,237.2L132.2,237.2z M132,234.3c1-0.1,1.8-0.6,2.3-1.5c0.5-0.9,0.7-2.1,0.6-3.7
		c-0.1-1.5-0.5-2.6-1.2-3.4c-0.7-0.8-1.5-1.1-2.5-1c-1,0.1-1.8,0.6-2.3,1.5c-0.5,0.9-0.7,2.1-0.6,3.6c0.1,1.5,0.5,2.7,1.2,3.5
		C130.1,234,130.9,234.4,132,234.3L132,234.3z M144.5,227.4l1.7-0.4c0.9-0.2,1.5-0.6,1.8-1c0.4-0.5,0.5-1.1,0.3-1.8
		c-0.2-0.7-0.5-1.2-1.1-1.3c-0.5-0.2-1.2-0.1-2.1,0.1l-1.7,0.4L144.5,227.4L144.5,227.4z M151,234.1l-4.1-4.5l-1.8,0.4l1.3,5.2
		l-3.3,0.8l-3.6-14.5l5.2-1.3c0.8-0.2,1.5-0.3,2.2-0.3c0.7,0,1.4,0.1,2,0.3s1.1,0.6,1.5,1.1c0.4,0.5,0.8,1.2,1,2
		c0.3,1.1,0.3,2,0,2.8c-0.3,0.8-0.8,1.5-1.5,2l4.7,5L151,234.1L151,234.1z M162.1,224.3l-0.8-1.2c-0.4-0.6-0.9-1.3-1.4-2.1
		c-0.5-0.7-0.9-1.4-1.4-2.1l-0.1,0c0.1,0.8,0.2,1.6,0.3,2.5c0.1,0.9,0.2,1.7,0.2,2.4l0.1,1.4L162.1,224.3L162.1,224.3z M163.6,226.6
		l-4.3,1.5l0.3,3.7l-3.3,1.1l-0.4-15.7l3.8-1.3l9.3,12.6l-3.4,1.2L163.6,226.6L163.6,226.6z M176.8,222.5c0.3-1.2,0.6-2.4,0.8-3.4
		c0.2-1.1,0.4-2,0.5-2.9c0.1-0.9,0.1-1.6,0.1-2.3c0-0.7-0.2-1.2-0.5-1.6c-0.4-0.6-0.8-1-1.4-1.1c-0.5-0.1-1,0-1.6,0.4
		c-0.4,0.3-0.8,0.7-0.9,1.2c-0.2,0.5-0.3,1-0.4,1.5l-2.5-0.5c0.2-1,0.5-1.9,0.9-2.7c0.4-0.7,1.1-1.4,1.9-2c0.6-0.4,1.2-0.7,1.8-0.8
		c0.6-0.1,1.2-0.1,1.8,0c0.6,0.1,1.1,0.3,1.6,0.7c0.5,0.3,0.9,0.8,1.3,1.4c0.3,0.5,0.6,1.1,0.7,1.8c0.1,0.7,0.2,1.4,0.2,2.2
		c0,0.8-0.1,1.6-0.2,2.4c-0.1,0.8-0.3,1.7-0.4,2.5c0.3-0.2,0.6-0.5,1-0.8s0.7-0.5,1-0.7l2.5-1.6l1.6,2.4l-8.6,5.6L176.8,222.5
		L176.8,222.5z M193.5,213.6c0.6-0.5,1.1-1.1,1.3-1.7c0.3-0.7,0.4-1.4,0.4-2.2c-0.1-0.8-0.3-1.6-0.7-2.5c-0.4-0.9-1-1.8-1.8-2.8
		c-0.8-1-1.6-1.7-2.3-2.3c-0.8-0.6-1.6-1-2.3-1.2c-0.8-0.2-1.5-0.2-2.2-0.1c-0.7,0.2-1.3,0.5-2,1c-0.6,0.5-1.1,1.1-1.4,1.7
		c-0.3,0.6-0.4,1.4-0.4,2.1c0,0.8,0.3,1.6,0.7,2.5c0.4,0.9,1,1.8,1.8,2.8c0.8,1,1.6,1.7,2.4,2.3c0.8,0.6,1.6,1,2.3,1.2
		c0.8,0.2,1.5,0.2,2.2,0.1C192.2,214.4,192.9,214.1,193.5,213.6L193.5,213.6z M191.8,211.6c0.2-0.2,0.4-0.4,0.5-0.7
		c0.1-0.3,0.1-0.6,0-1c-0.1-0.4-0.3-0.9-0.6-1.5c-0.3-0.6-0.8-1.2-1.4-2c-0.6-0.8-1.2-1.4-1.7-1.8c-0.5-0.4-0.9-0.7-1.3-0.9
		c-0.4-0.2-0.7-0.2-1-0.2c-0.3,0-0.5,0.2-0.8,0.3c-0.2,0.2-0.4,0.4-0.5,0.7c-0.1,0.3-0.1,0.6,0,1c0.1,0.4,0.3,0.9,0.6,1.4
		c0.3,0.6,0.8,1.2,1.4,2s1.2,1.4,1.7,1.8c0.5,0.4,0.9,0.7,1.3,0.9c0.4,0.2,0.7,0.3,1,0.2C191.4,211.8,191.6,211.7,191.8,211.6
		L191.8,211.6z M198.3,207c0-1.3,0-2.5,0-3.5c0-1.1-0.1-2.1-0.2-2.9c-0.1-0.9-0.3-1.6-0.5-2.2c-0.2-0.6-0.5-1.1-0.9-1.5
		c-0.5-0.5-1.1-0.7-1.6-0.7c-0.5,0-1,0.3-1.4,0.7c-0.4,0.4-0.6,0.8-0.6,1.3c-0.1,0.5-0.1,1,0,1.6l-2.6,0.1c-0.1-1,0-2,0.2-2.8
		c0.2-0.8,0.7-1.6,1.4-2.4c0.5-0.5,1-0.9,1.6-1.2c0.6-0.3,1.1-0.4,1.7-0.5c0.6,0,1.2,0.1,1.7,0.3c0.6,0.2,1.1,0.6,1.6,1
		c0.4,0.4,0.8,0.9,1.1,1.6c0.3,0.6,0.5,1.3,0.7,2.1c0.2,0.8,0.3,1.5,0.4,2.4c0.1,0.8,0.1,1.7,0.2,2.5c0.2-0.3,0.5-0.6,0.7-1
		c0.3-0.4,0.5-0.7,0.8-0.9l2-2.1l2.1,1.9l-7,7.5L198.3,207L198.3,207z M207.5,197.2l1.5,1.2l6.3-8.1l-2.2-1.8l-1.8,2.3
		c-0.2,0.3-0.4,0.6-0.7,1c-0.2,0.4-0.5,0.7-0.7,1c-0.1-0.8-0.3-1.7-0.4-2.5c-0.2-0.8-0.4-1.6-0.6-2.3c-0.2-0.7-0.5-1.4-0.9-2
		c-0.3-0.6-0.8-1.1-1.2-1.5c-0.6-0.4-1.1-0.7-1.7-0.9c-0.6-0.2-1.2-0.2-1.8-0.1c-0.6,0.1-1.1,0.3-1.7,0.6c-0.5,0.3-1,0.8-1.5,1.3
		c-0.6,0.8-1,1.6-1.2,2.5c-0.2,0.8-0.2,1.8,0,2.8l2.6-0.3c-0.1-0.5-0.1-1.1-0.1-1.6c0-0.5,0.2-1,0.5-1.4c0.4-0.5,0.9-0.8,1.4-0.8
		c0.5-0.1,1.1,0.1,1.6,0.6c0.4,0.3,0.7,0.8,1,1.4c0.3,0.6,0.5,1.3,0.7,2.2c0.2,0.9,0.3,1.8,0.5,2.9
		C207.2,194.8,207.4,195.9,207.5,197.2z"/>
	<polygon class="st2" points="176.1,61.8 191.1,76.9 188.8,79.2 197,87.3 195,108.7 177.2,90.9 174,94 194.4,114.4 192.4,135.6 
		162.5,105.6 140.4,127.6 191.1,178.3 176.1,193.3 125.4,142.6 74.7,193.3 59.6,178.3 110.3,127.6 88.3,105.5 76.3,129.4 
		63.9,116.9 74.4,96.8 59.1,112.1 47.4,100.5 65.3,82.6 63.5,80.8 78.6,65.7 80.4,67.5 97.1,50.8 108.8,62.5 94,77.3 113.5,67.2 
		126,79.7 103.4,90.5 125.4,112.5 147.4,90.5 132.2,75.3 143.7,63.7 158.9,78.9 162.1,75.8 146.9,60.6 158.5,48.9 173.8,64.1 	"/>
</g>
</svg>
