<svg width="73" height="76" viewBox="0 0 73 76" fill="none" xmlns="http://www.w3.org/2000/svg">
<path d="M51.1836 32.8543H38.7554V63.9114C38.7534 64.5973 38.4908 65.2545 38.0249 65.7396C37.559 66.2246 36.9277 66.498 36.2688 66.5001C35.61 66.498 34.9787 66.2246 34.5128 65.7396C34.0469 65.2545 33.7843 64.5973 33.7823 63.9114V50.9723H28.8107V63.9114C28.8087 64.597 28.5463 65.254 28.0807 65.739C27.6151 66.224 26.9842 66.4976 26.3256 66.5001C25.6668 66.498 25.0355 66.2246 24.5696 65.7396C24.1037 65.2545 23.8411 64.5973 23.8391 63.9114V32.8543V44.677C22.4718 44.677 18.25 41.9679 18.25 35.2958C18.25 30.2671 22.4718 27.6799 23.8391 27.6799H51.1836C51.8422 27.682 52.4733 27.9552 52.9392 28.4399C53.405 28.9246 53.6678 29.5814 53.6702 30.2671C53.6678 30.9528 53.405 31.6096 52.9392 32.0943C52.4733 32.579 51.8422 32.8522 51.1836 32.8543Z" fill="#555555"/>
<path d="M51.7084 17.4167V64.9168H48.6667V17.4167H51.7084Z" fill="#555555"/>
<path d="M39.5417 23.75C39.5417 21.1264 44.308 19 50.1875 19C56.0671 19 60.8333 21.1264 60.8333 23.75C53.2292 21.375 47.9063 21.375 39.5417 23.75Z" fill="#555555"/>
<path fill-rule="evenodd" clip-rule="evenodd" d="M38.0208 16.625H35.1282C35.8399 17.5212 36.2688 18.6675 36.2688 19.9152C36.2648 21.2869 35.7395 22.6012 34.8077 23.571C33.8759 24.5408 32.6133 25.0873 31.2957 25.0911C29.9784 25.0865 28.7163 24.5394 27.7851 23.5694C26.8539 22.5993 26.3292 21.285 26.3256 19.9136C26.3256 18.6675 26.7545 17.5212 27.4662 16.625H24.3333C24.3333 14.7353 25.0543 12.9231 26.3378 11.5869C27.6213 10.2507 29.362 9.5 31.1771 9.5C32.9921 9.5 34.7329 10.2507 36.0163 11.5869C37.2998 12.9231 38.0208 14.7353 38.0208 16.625ZM31.1771 15.8333C31.7821 15.8333 32.3623 15.5831 32.7901 15.1377C33.218 14.6923 33.4583 14.0882 33.4583 13.4583C33.4583 12.8284 33.218 12.2244 32.7901 11.779C32.3623 11.3336 31.7821 11.0833 31.1771 11.0833C30.572 11.0833 29.9918 11.3336 29.564 11.779C29.1362 12.2244 28.8958 12.8284 28.8958 13.4583C28.8958 14.0882 29.1362 14.6923 29.564 15.1377C29.9918 15.5831 30.572 15.8333 31.1771 15.8333Z" fill="#555555"/>
</svg>
