<?xml version="1.0" encoding="utf-8"?>
<!-- Generator: Adobe Illustrator 19.0.0, SVG Export Plug-In . SVG Version: 6.00 Build 0)  -->
<svg version="1.1" id="Layer_1" xmlns="http://www.w3.org/2000/svg" xmlns:xlink="http://www.w3.org/1999/xlink" x="0px" y="0px"
	 viewBox="-254.3 365.3 50.7 63.3" style="enable-background:new -254.3 365.3 50.7 63.3;" xml:space="preserve">
<style type="text/css">
	.st0{fill:#555555;}
</style>
<path class="st0" d="M-210,428.7h-38c-1.7,0-3.3-0.7-4.5-1.9c-1.2-1.2-1.9-2.8-1.9-4.5v-50.7c0-1.7,0.7-3.3,1.9-4.5
	c1.2-1.2,2.8-1.9,4.5-1.9h22.2c0,0,0.1,0,0.1,0h0c0,0,0.1,0,0.1,0c0.3,0,0.6,0.1,0.8,0.2h0.1c0.1,0,0.1,0.1,0.2,0.1
	c0.3,0.2,0.7,0.4,0.9,0.6l19,19c0.3,0.3,0.5,0.6,0.6,0.9c0,0.1,0.1,0.1,0.1,0.2l0,0.1c0.1,0.3,0.1,0.5,0.2,0.8c0,0,0,0.1,0,0.1v0
	c0,0,0,0,0,0.1v34.8c0,1.7-0.7,3.3-1.9,4.5C-206.7,428-208.3,428.7-210,428.7z M-221.3,403.3v15.8h3v-6.5h4.6v-2.7h-4.6V406h5.2
	v-2.7H-221.3z M-233,403.3v15.8h3.8c1.6,0.1,3.2-0.6,4.2-1.8c1.1-1.4,1.6-3.1,1.5-4.9v-2.6c0.1-1.7-0.5-3.5-1.6-4.8
	c-1-1.2-2.5-1.8-4.1-1.8H-233L-233,403.3z M-244.8,403.3v15.8h3v-5.6h2c1.3,0.1,2.6-0.4,3.6-1.3c0.9-1,1.4-2.3,1.3-3.7
	c0.1-1.4-0.4-2.7-1.3-3.8c-0.4-0.5-1-0.9-1.6-1.1c-0.6-0.3-1.3-0.4-1.9-0.3H-244.8z M-225.8,371.7v15.8h15.8L-225.8,371.7z
	 M-229.2,416.5h-0.9V406h1.1c0.4,0,0.8,0.1,1.1,0.2c0.3,0.2,0.6,0.4,0.9,0.7c0.5,1,0.7,2,0.6,3.1v2.8c0.1,1-0.1,2-0.6,2.9
	c-0.3,0.3-0.6,0.5-0.9,0.7C-228.4,416.5-228.8,416.6-229.2,416.5L-229.2,416.5z M-239.8,410.9h-2V406h2.1c0.3,0,0.5,0.1,0.7,0.2
	c0.2,0.1,0.4,0.3,0.5,0.5c0.3,0.6,0.5,1.2,0.5,1.9c0,0.6-0.1,1.2-0.5,1.7c-0.2,0.2-0.4,0.4-0.6,0.5
	C-239.3,410.9-239.6,410.9-239.8,410.9z"/>
</svg>
