<svg width="32" height="57" viewBox="0 0 32 57" fill="none" xmlns="http://www.w3.org/2000/svg">
<path d="M23.9999 51.6562H19.5555V38.6097C27.1633 36.8407 32.6722 29.7135 31.9333 21.4474L30.1611 1.61982C30.0788 0.70248 29.3222 0 28.4155 0H3.58438C2.67883 0 1.92105 0.70248 1.83994 1.61982L0.0666054 21.4485C-0.672284 29.7146 4.83661 36.8418 12.4444 38.6108V51.6562H7.99994C5.54549 51.6562 3.55549 53.6501 3.55549 56.1094C3.55549 56.6014 3.95327 57 4.44438 57H27.5555C28.0466 57 28.4444 56.6014 28.4444 56.1094C28.4444 53.6501 26.4544 51.6562 23.9999 51.6562Z" fill="#555555"/>
</svg>
