<svg width="51" height="51" viewBox="0 0 51 51" fill="none" xmlns="http://www.w3.org/2000/svg">
<g clip-path="url(#clip0_81_14)">
<path d="M38.25 0H12.75C11.0592 0 9.43774 0.67165 8.24219 1.86719C7.04665 3.06274 6.375 4.68424 6.375 6.375V44.625C6.375 46.3158 7.04665 47.9373 8.24219 49.1328C9.43774 50.3284 11.0592 51 12.75 51H38.25C39.9408 51 41.5623 50.3284 42.7578 49.1328C43.9534 47.9373 44.625 46.3158 44.625 44.625V6.375C44.625 4.68424 43.9534 3.06274 42.7578 1.86719C41.5623 0.67165 39.9408 0 38.25 0V0ZM15.9375 12.75H35.0625C35.4852 12.75 35.8906 12.9179 36.1895 13.2168C36.4883 13.5157 36.6562 13.9211 36.6562 14.3438C36.6562 14.7664 36.4883 15.1718 36.1895 15.4707C35.8906 15.7696 35.4852 15.9375 35.0625 15.9375H15.9375C15.5148 15.9375 15.1094 15.7696 14.8105 15.4707C14.5117 15.1718 14.3438 14.7664 14.3438 14.3438C14.3438 13.9211 14.5117 13.5157 14.8105 13.2168C15.1094 12.9179 15.5148 12.75 15.9375 12.75ZM14.3438 20.7188C14.3438 20.2961 14.5117 19.8907 14.8105 19.5918C15.1094 19.2929 15.5148 19.125 15.9375 19.125H35.0625C35.4852 19.125 35.8906 19.2929 36.1895 19.5918C36.4883 19.8907 36.6562 20.2961 36.6562 20.7188C36.6562 21.1414 36.4883 21.5468 36.1895 21.8457C35.8906 22.1446 35.4852 22.3125 35.0625 22.3125H15.9375C15.5148 22.3125 15.1094 22.1446 14.8105 21.8457C14.5117 21.5468 14.3438 21.1414 14.3438 20.7188ZM15.9375 25.5H35.0625C35.4852 25.5 35.8906 25.6679 36.1895 25.9668C36.4883 26.2657 36.6562 26.6711 36.6562 27.0938C36.6562 27.5164 36.4883 27.9218 36.1895 28.2207C35.8906 28.5196 35.4852 28.6875 35.0625 28.6875H15.9375C15.5148 28.6875 15.1094 28.5196 14.8105 28.2207C14.5117 27.9218 14.3438 27.5164 14.3438 27.0938C14.3438 26.6711 14.5117 26.2657 14.8105 25.9668C15.1094 25.6679 15.5148 25.5 15.9375 25.5ZM15.9375 31.875H25.5C25.9227 31.875 26.3281 32.0429 26.627 32.3418C26.9258 32.6407 27.0938 33.0461 27.0938 33.4688C27.0938 33.8914 26.9258 34.2968 26.627 34.5957C26.3281 34.8946 25.9227 35.0625 25.5 35.0625H15.9375C15.5148 35.0625 15.1094 34.8946 14.8105 34.5957C14.5117 34.2968 14.3438 33.8914 14.3438 33.4688C14.3438 33.0461 14.5117 32.6407 14.8105 32.3418C15.1094 32.0429 15.5148 31.875 15.9375 31.875Z" fill="#555555"/>
</g>
<defs>
<clipPath id="clip0_81_14">
<rect width="51" height="51" fill="white"/>
</clipPath>
</defs>
</svg>
