<svg width="73" height="69" viewBox="0 0 73 69" fill="none" xmlns="http://www.w3.org/2000/svg">
<path fill-rule="evenodd" clip-rule="evenodd" d="M38.6505 20.9674C38.0801 20.4284 37.3065 20.1256 36.5 20.1256C35.6935 20.1256 34.9199 20.4284 34.3495 20.9674L22.1829 32.4674C21.6127 33.0065 21.2923 33.7377 21.2923 34.5C21.2923 35.2623 21.6127 35.9935 22.1829 36.5326L34.3495 48.0326C34.9232 48.5563 35.6915 48.8461 36.4891 48.8396C37.2866 48.833 38.0495 48.5307 38.6134 47.9976C39.1774 47.4646 39.4972 46.7435 39.5042 45.9897C39.5111 45.2358 39.2045 44.5096 38.6505 43.9674L31.6759 37.375H60.8333C61.64 37.375 62.4137 37.0721 62.9841 36.5329C63.5545 35.9938 63.875 35.2625 63.875 34.5C63.875 33.7375 63.5545 33.0062 62.9841 32.4671C62.4137 31.9279 61.64 31.625 60.8333 31.625H31.6759L38.6505 25.0326C39.2207 24.4935 39.541 23.7623 39.541 23C39.541 22.2377 39.2207 21.5065 38.6505 20.9674ZM18.25 8.625C15.8299 8.625 13.5089 9.5337 11.7977 11.1512C10.0864 12.7687 9.125 14.9625 9.125 17.25V51.75C9.125 54.0375 10.0864 56.2313 11.7977 57.8488C13.5089 59.4663 15.8299 60.375 18.25 60.375H42.5833C45.0034 60.375 47.3244 59.4663 49.0357 57.8488C50.747 56.2313 51.7083 54.0375 51.7083 51.75V17.25C51.7083 14.9625 50.747 12.7687 49.0357 11.1512C47.3244 9.5337 45.0034 8.625 42.5833 8.625H18.25Z" fill="#555555"/>
</svg>
